<svg xmlns="http://www.w3.org/2000/svg" width="1200" height="360" viewBox="0 0 1200 360" role="img" aria-labelledby="title desc">
  <title id="title">Spider Lily — Manga Reader for Android</title>
  <desc id="desc">Free and open-source Android manga reader featuring 1200+ sources, Tachiyomi extension compatibility, and clean Japanese dark aesthetics.</desc>

  <defs>
    <linearGradient id="bg-gradient" x1="0%" y1="0%" x2="100%" y2="100%">
      <stop offset="0%" stop-color="#0F0F14"/>
      <stop offset="60%" stop-color="#0B0B0E"/>
      <stop offset="100%" stop-color="#140A0D"/>
    </linearGradient>

    <linearGradient id="crimson-glow" x1="0%" y1="0%" x2="100%" y2="0%">
      <stop offset="0%" stop-color="#E52E2E"/>
      <stop offset="100%" stop-color="#FF5A5A"/>
    </linearGradient>

    <linearGradient id="card-border" x1="0%" y1="0%" x2="100%" y2="100%">
      <stop offset="0%" stop-color="#3A181E"/>
      <stop offset="100%" stop-color="#1F1A24"/>
    </linearGradient>

    <pattern id="dot-grid" width="24" height="24" patternUnits="userSpaceOnUse">
      <circle cx="12" cy="12" r="1" fill="#E52E2E" fill-opacity="0.07"/>
    </pattern>
  </defs>

  <!-- Background Card -->
  <rect width="1200" height="360" rx="20" fill="url(#bg-gradient)"/>
  <rect width="1200" height="360" rx="20" fill="url(#dot-grid)"/>
  <rect x="0.5" y="0.5" width="1199" height="359" rx="19.5" fill="none" stroke="url(#card-border)" stroke-width="1"/>

  <!-- Left Accent Line -->
  <rect x="0" y="40" width="4" height="280" rx="2" fill="url(#crimson-glow)"/>

  <!-- Background Japanese Watermark Typography -->
  <g opacity="0.04" fill="#E52E2E">
    <text x="1140" y="240" font-family="'Yu Gothic', 'Hiragino Sans', 'Meiryo', sans-serif" font-size="190" font-weight="900" text-anchor="end">彼岸花</text>
  </g>

  <!-- Left Title Content Block -->
  <g transform="translate(60, 55)">
    <!-- Eyebrow Tag -->
    <g transform="translate(0, 0)">
      <rect width="210" height="28" rx="6" fill="#241014" stroke="#4A1820" stroke-width="1"/>
      <circle cx="14" cy="14" r="4" fill="#E52E2E"/>
      <text x="26" y="18.5" font-family="ui-monospace, 'SFMono-Regular', Menlo, monospace" font-size="11" font-weight="700" fill="#FF8888" letter-spacing="1.2">ANDROID MANGA READER</text>
    </g>

        <!-- Project Title (Kurozen Vector Path) -->
    <path d="M13.392 58.942V55.432C15.174 55.054 16.956 54.676 18.63 54.352000000000004C23.544 53.488 27.701999999999998 53.056 28.674 52.948C28.782 52.948 28.944 52.894000000000005 29.105999999999998 52.894000000000005C29.268 52.894000000000005 29.43 52.84 29.646 52.84C29.754 52.84 29.916 52.84 30.078 52.84V55.108000000000004H38.339999999999996V44.2C38.178 44.2 38.016 44.2 37.854 44.2C37.692 44.2 37.53 44.2 37.314 44.2H36.18C34.992 44.254 33.75 44.308 32.562 44.362C32.508 44.362 32.454 44.362 32.454 44.416000000000004C31.59 44.47 30.618 44.578 29.646 44.686C29.43 44.74 29.268 44.74 29.105999999999998 44.74C24.137999999999998 45.334 18.63 46.144 18.63 46.144C17.01 46.414 15.228 46.738 13.392 47.062V44.2H5.184V48.79C4.914 48.844 4.644 48.898 4.374 49.006C3.348 49.222 2.268 49.492 1.458 49.708C1.296 49.762 1.134 49.816 1.026 49.87C1.458 51.598 2.052 53.757999999999996 2.592 56.08C2.7 56.620000000000005 2.862 57.106 2.9699999999999998 57.592C2.9699999999999998 57.7 3.024 57.862 3.024 57.97C3.456 57.862 3.888 57.754000000000005 4.374 57.592C4.644 57.538 4.914 57.484 5.184 57.43V67.20400000000001H30.078V70.768C28.35 71.146 26.568 71.524 24.84 71.794C19.98 72.712 15.768 73.144 14.85 73.252C14.688 73.252 14.526 73.306 14.418 73.306C14.256 73.306 14.04 73.306 13.878 73.36C13.716 73.36 13.554 73.36 13.392 73.36V71.092H5.184V82.0C5.346 82.0 5.454 82.0 5.616 82.0C5.832 82.0 5.994 82.0 6.156 82.0L7.344 81.946C8.532 81.946 9.72 81.892 10.962 81.784C10.962 81.784 11.016 81.784 11.07 81.784C11.934 81.73 12.906 81.622 13.878 81.46C14.04 81.46 14.202 81.46 14.418 81.406C19.386 80.812 24.84 80.056 24.84 80.056C26.46 79.786 28.242 79.462 30.078 79.138C30.348 79.084 30.618 79.03 30.887999999999998 78.976C32.076 78.76 33.318 78.544 34.56 78.274C35.316 78.112 36.018 77.95 36.774 77.788C37.098 77.68 37.638 77.572 38.339999999999996 77.41V58.942Z M74.142 48.196C73.224 47.98 72.306 47.818 71.388 47.602000000000004C70.578 47.44 69.768 47.278 68.958 47.116C67.014 46.738 65.07 46.468 63.233999999999995 46.144C61.182 45.874 57.672 45.442 54.647999999999996 45.064V44.956C52.326 44.686 50.22 44.416000000000004 49.41 44.362C49.41 44.362 49.356 44.362 49.302 44.362C48.384 44.254 47.412 44.254 46.494 44.2C46.494 44.2 46.44 44.2 46.44 44.2V60.184C46.17 60.184 45.954 60.129999999999995 45.684 60.129999999999995C44.712 60.076 43.686 60.076 42.714 60.076V68.338C43.686 68.338 44.712 68.338 45.684 68.392C45.954 68.392 46.17 68.392 46.44 68.392V82.0H54.647999999999996V68.986C56.484 69.202 59.67 69.634 63.233999999999995 70.282C63.936 70.39 67.014 70.984 71.334 72.01C71.334 72.01 71.388 72.01 71.388 72.01C72.252 72.226 73.17 72.44200000000001 74.142 72.658C75.816 73.09 77.652 73.576 79.596 74.116V49.492C77.814 49.006 76.032 48.574 74.142 48.196ZM71.388 63.478C70.578 63.316 69.768 63.153999999999996 68.958 62.992000000000004C67.014 62.668 65.07 62.344 63.233999999999995 62.019999999999996C61.182 61.75 57.672 61.318 54.647999999999996 60.94V53.11C56.484 53.326 59.67 53.757999999999996 63.233999999999995 54.406C63.936 54.513999999999996 67.014 55.108000000000004 71.334 56.134C71.334 56.134 71.388 56.134 71.388 56.134Z M88.938 44.794C87.588 44.902 86.292 44.902 85.158 44.902V53.164C86.292 53.218 87.642 53.218 89.1 53.11C90.72 52.948 92.178 52.623999999999995 93.42 52.3V44.2C92.07 44.47 90.55799999999999 44.686 88.938 44.794ZM85.158 82.0H93.42V55.0H85.158Z M132.84 57.808C132.624 57.808 132.35399999999998 57.808 132.138 57.808V44.2H123.876V57.214C122.04 56.998000000000005 118.908 56.566 115.344 55.918C114.588 55.81 111.51 55.216 107.19 54.19C107.19 54.19 107.19 54.19 107.19 54.19C106.32600000000001 53.974000000000004 105.408 53.757999999999996 104.382 53.542C102.762 53.11 100.926 52.623999999999995 98.928 52.084V76.708C100.71000000000001 77.194 102.546 77.626 104.382 78.004C105.3 78.22 106.218 78.382 107.19 78.598C107.946 78.76 108.81 78.922 109.62 79.084C111.56400000000001 79.462 113.45400000000001 79.732 115.344 80.056C117.396 80.326 120.906 80.812 123.876 81.136V81.244C126.25200000000001 81.514 128.304 81.784 129.114 81.838C129.168 81.838 129.168 81.838 129.222 81.838C130.19400000000002 81.946 131.112 81.946 132.03 82.0C132.084 82.0 132.084 82.0 132.138 82.0V66.016C132.35399999999998 66.07 132.624 66.07 132.84 66.07C133.86599999999999 66.124 134.838 66.124 135.81 66.124V57.862C134.838 57.862 133.86599999999999 57.862 132.84 57.808ZM123.876 73.09C122.04 72.874 118.854 72.44200000000001 115.344 71.794C114.588 71.686 111.51 71.092 107.19 70.066C107.19 70.066 107.19 70.066 107.19 70.066V62.722C107.946 62.884 108.81 63.046 109.62 63.208C111.56400000000001 63.532 113.45400000000001 63.91 115.344 64.18C117.396 64.45 120.852 64.882 123.876 65.26Z M172.098 45.172C171.936 45.226 171.72 45.28 171.558 45.334C171.126 45.442 170.69400000000002 45.55 170.262 45.658C169.29 45.928 168.318 46.144 167.454 46.36C163.13400000000001 47.386 160.056 47.926 159.354 48.088C155.62800000000001 48.736 152.388 49.168 150.552 49.384V44.2H142.344V49.978C142.18200000000002 49.978 141.966 49.978 141.804 49.978C140.832 49.978 139.806 50.032 138.834 50.032V58.24C139.806 58.24 140.832 58.24 141.804 58.24C141.966 58.24 142.18200000000002 58.186 142.344 58.186V82.0C142.452 82.0 142.56 82.0 142.668 82.0C142.722 82.0 142.722 82.0 142.776 82.0C143.91 81.892 147.258 81.46 150.552 81.028C152.82 80.704 155.088 80.434 156.6 80.218C158.436 79.948 160.38 79.624 162.27 79.246C164.052 78.922 165.78 78.598 167.508 78.22C170.316 77.572 173.07 76.924 175.716 76.168V67.312C172.692 68.23 169.88400000000001 68.986 167.508 69.58C166.482 69.85 165.564 70.066 164.7 70.282C160.38 71.30799999999999 157.302 71.848 156.546 72.01C154.332 72.388 152.28 72.712 150.552 72.928V70.66C153.414 68.932 157.734 66.178 160.056 64.72C161.622 63.64 163.242 62.56 164.808 61.426C166.32 60.4 167.724 59.32 169.12800000000001 58.294C171.45 56.512 173.61 54.784 175.716 53.001999999999995V44.2C174.474 44.578 173.232 44.902 172.098 45.172ZM156.6 57.214C154.278 58.834 152.172 60.238 150.552 61.21V57.43C152.874 57.16 155.466 56.836 157.518 56.566C157.086 56.89 156.762 57.106 156.6 57.214Z M216.054 49.87C216.0 49.816 215.946 49.816 215.892 49.816C215.784 49.762 215.73000000000002 49.762 215.622 49.762C214.056 49.33 211.19400000000002 48.628 210.38400000000001 48.412C209.62800000000001 48.25 208.872 48.088 208.116 47.926C204.768 47.224000000000004 201.366 46.63 198.45 46.144C197.802 46.036 197.154 45.982 196.506 45.874C194.724 45.604 192.942 45.388 191.106 45.172C188.406 44.848 185.65200000000002 44.578 182.898 44.362C181.872 44.308 180.792 44.254 179.766 44.2C179.55 44.2 179.388 44.2 179.172 44.2V52.462C179.388 52.462 179.55 52.462 179.766 52.462C179.874 52.462 179.982 52.462 180.144 52.462C180.738 52.462 181.332 52.516000000000005 181.92600000000002 52.516000000000005C182.25 52.516000000000005 182.574 52.516000000000005 182.898 52.57V82.0H191.106V53.272000000000006C193.59 53.542 196.02 53.92 198.45 54.406C200.88 54.838 203.472 55.378 205.95600000000002 55.972C205.95600000000002 55.972 205.95600000000002 55.972 205.95600000000002 55.972C205.95600000000002 55.972 205.95600000000002 55.972 205.95600000000002 55.972C205.95600000000002 56.025999999999996 205.95600000000002 56.025999999999996 205.95600000000002 56.025999999999996C205.524 58.186 205.092 60.346000000000004 204.768 62.344C205.362 62.506 205.95600000000002 62.668 206.55 62.775999999999996C208.764 63.316 210.87 63.802 212.70600000000002 64.288C213.084 62.182 213.57 60.022000000000006 214.056 57.97C214.056 57.916 214.11 57.808 214.11 57.7C214.11 57.7 214.11 57.646 214.11 57.592C214.272 57.106 214.38 56.620000000000005 214.488 56.134C215.082 53.812 215.622 51.652 216.054 49.87C216.054 49.87 216.054 49.87 216.054 49.87Z M269.24399999999997 70.228C265.14 71.146 263.08799999999997 71.578 261.738 71.794C256.824 72.712 252.666 73.144 251.694 73.252C251.694 73.252 251.694 73.252 251.64 73.252V44.2H243.432V73.738C243.32399999999998 73.738 243.162 73.738 243.054 73.738C241.92 73.738 240.786 73.738 239.706 73.738V82.0C240.192 82.0 240.624 82.0 241.10999999999999 82.0C241.75799999999998 82.0 242.406 82.0 243.054 82.0C243.162 82.0 243.32399999999998 82.0 243.432 82.0C243.702 81.946 243.97199999999998 81.946 244.242 81.946C245.43 81.946 246.618 81.892 247.85999999999999 81.784C247.85999999999999 81.784 247.914 81.784 247.968 81.784C248.994 81.676 250.128 81.568 251.316 81.406C251.424 81.406 251.53199999999998 81.406 251.64 81.352C256.5 80.812 261.738 80.056 261.738 80.056C264.87 79.57 268.11 78.976 271.45799999999997 78.274C273.24 77.896 274.968 77.464 276.642 77.032C275.778 74.44 274.914 71.794 273.996 69.148C272.86199999999997 69.418 271.242 69.79599999999999 269.24399999999997 70.228Z M283.824 44.794C282.474 44.902 281.178 44.902 280.044 44.902V53.164C281.178 53.218 282.528 53.218 283.986 53.11C285.606 52.948 287.064 52.623999999999995 288.306 52.3V44.2C286.956 44.47 285.444 44.686 283.824 44.794ZM280.044 82.0H288.306V55.0H280.044Z M328.536 72.604C327.834 72.44200000000001 327.078 72.28 326.322 72.118C325.34999999999997 71.902 324.27 71.74 323.298 71.524C320.92199999999997 71.092 318.654 70.714 316.656 70.336C316.656 70.336 311.202 69.58 306.234 68.986H306.18C305.046 68.824 303.912 68.716 302.832 68.608C302.832 68.608 302.832 68.608 302.832 68.608V44.2H294.57V82.0H302.832V76.87C302.832 76.87 302.832 76.87 302.832 76.87C303.966 76.924 305.09999999999997 77.032 306.18 77.14H306.234C306.342 77.14 306.50399999999996 77.14 306.61199999999997 77.194C307.584 77.248 311.74199999999996 77.734 316.656 78.598C318.816 78.976 321.03 79.462 323.298 80.002C323.568 80.056 323.892 80.11 324.162 80.218C324.378 80.218 324.53999999999996 80.272 324.756 80.326C327.24 80.866 329.562 81.46 331.506 82.0V73.36C330.264 73.036 329.07599999999996 72.766 328.536 72.604Z M366.01199999999994 58.995999999999995C366.60599999999994 56.836 367.14599999999996 54.676 367.578 52.516000000000005C367.63199999999995 52.3 367.686 52.03 367.73999999999995 51.814C367.90199999999993 50.95 368.06399999999996 50.086 368.17199999999997 49.168C368.44199999999995 47.548 368.712 45.874 368.98199999999997 44.2H360.61199999999997C360.17999999999995 46.792 359.90999999999997 48.574 359.85599999999994 49.06C359.74799999999993 49.492 359.69399999999996 49.87 359.69399999999996 49.87C359.58599999999996 50.356 359.532 50.734 359.47799999999995 50.95C359.26199999999994 52.138000000000005 359.04599999999994 53.326 358.77599999999995 54.513999999999996C358.77599999999995 54.513999999999996 358.77599999999995 54.568 358.722 54.622C358.45199999999994 55.864000000000004 358.18199999999996 57.106 357.85799999999995 58.294C357.85799999999995 58.402 357.804 58.564 357.74999999999994 58.726C357.74999999999994 58.834 357.69599999999997 58.888000000000005 357.69599999999997 58.995999999999995H344.95199999999994C344.78999999999996 58.510000000000005 344.68199999999996 58.186 344.57399999999996 57.97C344.19599999999997 56.782 343.818 55.594 343.43999999999994 54.352000000000004C343.38599999999997 54.352000000000004 343.38599999999997 54.298 343.38599999999997 54.244C343.06199999999995 53.11 342.68399999999997 51.922 342.414 50.788C342.35999999999996 50.572 342.25199999999995 50.194 342.14399999999995 49.708C342.14399999999995 49.708 342.03599999999994 49.33 341.92799999999994 48.898C341.81999999999994 48.412 341.388 46.738 340.794 44.2H332.316C332.74799999999993 46.036 333.17999999999995 47.872 333.61199999999997 49.708C333.828 50.518 334.044 51.382000000000005 334.25999999999993 52.245999999999995C334.31399999999996 52.462 334.42199999999997 52.732 334.47599999999994 52.948C335.06999999999994 55.0 335.71799999999996 56.998000000000005 336.41999999999996 58.995999999999995C336.52799999999996 59.32 336.63599999999997 59.59 336.74399999999997 59.914C337.60799999999995 62.344 338.52599999999995 64.774 339.49799999999993 67.20400000000001H355.104C355.04999999999995 67.474 354.94199999999995 67.69 354.888 67.96000000000001C353.96999999999997 70.498 352.94399999999996 73.19800000000001 351.91799999999995 75.736C350.94599999999997 78.004 350.02799999999996 80.164 349.21799999999996 82.0H358.34399999999994C358.55999999999995 81.406 358.77599999999995 80.92 358.88399999999996 80.65C359.15399999999994 80.002 359.47799999999995 79.246 359.74799999999993 78.544C360.98999999999995 75.358 362.06999999999994 72.064 362.98799999999994 69.256C363.15 68.824 363.258 68.392 363.41999999999996 67.96000000000001C363.47399999999993 67.744 363.52799999999996 67.474 363.63599999999997 67.20400000000001H369.14399999999995V58.995999999999995Z" fill="#F8F8FA" />
    <text x="390" y="82" font-family="'Yu Gothic', 'Hiragino Sans', sans-serif" font-size="28" font-weight="700" fill="#E52E2E" opacity="0.85">蜘蛛百合</text>

    <!-- Subtitle / Promise -->
    <text x="0" y="122" font-family="-apple-system, BlinkMacSystemFont, 'Segoe UI', Roboto, sans-serif" font-size="18" font-weight="400" fill="#A0A0B0">Free, open-source manga reader for Android featuring 1200+ sources,</text>
    <text x="0" y="148" font-family="-apple-system, BlinkMacSystemFont, 'Segoe UI', Roboto, sans-serif" font-size="18" font-weight="400" fill="#A0A0B0">Tachiyomi extension engine integration, and zero ads or paywalls.</text>

    <!-- Feature Pills Grid -->
    <g transform="translate(0, 185)">
      <!-- Pill 1 -->
      <g transform="translate(0, 0)">
        <rect width="165" height="38" rx="10" fill="#161218" stroke="#2D1A22" stroke-width="1"/>
        <text x="16" y="24" font-family="ui-monospace, 'SFMono-Regular', Menlo, monospace" font-size="13" font-weight="700" fill="#E52E2E">1200+</text>
        <text x="68" y="24" font-family="-apple-system, BlinkMacSystemFont, 'Segoe UI', Roboto, sans-serif" font-size="13" font-weight="500" fill="#D0D0E0">Sources</text>
      </g>

      <!-- Pill 2 -->
      <g transform="translate(177, 0)">
        <rect width="210" height="38" rx="10" fill="#161218" stroke="#2D1A22" stroke-width="1"/>
        <text x="16" y="24" font-family="ui-monospace, 'SFMono-Regular', Menlo, monospace" font-size="13" font-weight="700" fill="#E52E2E">Keiyoushi</text>
        <text x="90" y="24" font-family="-apple-system, BlinkMacSystemFont, 'Segoe UI', Roboto, sans-serif" font-size="13" font-weight="500" fill="#D0D0E0">Extensions</text>
      </g>

      <!-- Pill 3 -->
      <g transform="translate(399, 0)">
        <rect width="170" height="38" rx="10" fill="#161218" stroke="#2D1A22" stroke-width="1"/>
        <text x="16" y="24" font-family="ui-monospace, 'SFMono-Regular', Menlo, monospace" font-size="13" font-weight="700" fill="#E52E2E">Android 6.0+</text>
        <text x="112" y="24" font-family="-apple-system, BlinkMacSystemFont, 'Segoe UI', Roboto, sans-serif" font-size="13" font-weight="500" fill="#D0D0E0">Req</text>
      </g>
    </g>

    <!-- Specs / Footer line -->
    <g transform="translate(0, 252)">
      <text x="0" y="0" font-family="ui-monospace, 'SFMono-Regular', Menlo, monospace" font-size="12" fill="#6E6E82">LICENSE: <tspan fill="#C0C0D0">GPL-3.0</tspan>   |   STACK: <tspan fill="#C0C0D0">Kotlin / Jetpack Compose / Room</tspan>   |   TRACKERS: <tspan fill="#C0C0D0">MAL / AniList / Kitsu</tspan></text>
    </g>
  </g>

  <!-- Right Visual: Vector Red Spider Lily (Lycoris Radiata) Emblem -->
  <g transform="translate(970, 180)">
    <!-- Outer Decorative Orbit Ring -->
    <circle cx="0" cy="0" r="125" fill="none" stroke="#E52E2E" stroke-opacity="0.12" stroke-width="1" stroke-dasharray="6 6"/>
    <circle cx="0" cy="0" r="105" fill="none" stroke="#E52E2E" stroke-opacity="0.25" stroke-width="1"/>
    <circle cx="0" cy="0" r="85" fill="#180C10" stroke="#3D141C" stroke-width="1.5"/>

    <!-- Spider Lily Curved Stem -->
    <path d="M 0,85 C -5,50 -2,20 0,-15" fill="none" stroke="#E52E2E" stroke-width="3" stroke-linecap="round"/>
    <path d="M 0,35 C -15,55 -25,75 -30,85" fill="none" stroke="#E52E2E" stroke-width="1.5" opacity="0.6"/>

    <!-- Flower Center Core -->
    <circle cx="0" cy="-15" r="7" fill="#FF4D4D"/>

    <!-- Radiating Spider Lily Petals (Curved Lycoris Geometry) -->
    <!-- Petal Pair 1: Upper Right -->
    <path d="M 0,-15 C 20,-35 45,-45 55,-35 C 65,-25 45,-15 20,-10" fill="#E52E2E" opacity="0.9"/>
    <path d="M 0,-15 C 30,-20 60,-20 70,-5 C 75,10 50,0 20,-5" fill="#FF4D4D" opacity="0.8"/>

    <!-- Petal Pair 2: Upper Left -->
    <path d="M 0,-15 C -20,-35 -45,-45 -55,-35 C -65,-25 -45,-15 -20,-10" fill="#E52E2E" opacity="0.9"/>
    <path d="M 0,-15 C -30,-20 -60,-20 -70,-5 C -75,10 -50,0 -20,-5" fill="#FF4D4D" opacity="0.8"/>

    <!-- Petal Pair 3: Lower Right / Left -->
    <path d="M 0,-15 C 25,5 50,20 60,35 C 55,45 35,30 15,10" fill="#C41E1E" opacity="0.95"/>
    <path d="M 0,-15 C -25,5 -50,20 -60,35 C -55,45 -35,30 -15,10" fill="#C41E1E" opacity="0.95"/>

    <!-- Long Radiating Stamens with Anther Animate Dots (Lycoris Filament Signature) -->
    <path d="M 0,-15 C 20,-60 45,-80 40,-90" fill="none" stroke="#FF5A5A" stroke-width="1.5"/>
    <circle cx="40" cy="-90" r="3" fill="#FFD700"/>

    <path d="M 0,-15 C -20,-60 -45,-80 -40,-90" fill="none" stroke="#FF5A5A" stroke-width="1.5"/>
    <circle cx="-40" cy="-90" r="3" fill="#FFD700"/>

    <path d="M 0,-15 C 40,-50 70,-60 80,-55" fill="none" stroke="#FF5A5A" stroke-width="1.5"/>
    <circle cx="80" cy="-55" r="3" fill="#FFD700"/>

    <path d="M 0,-15 C -40,-50 -70,-60 -80,-55" fill="none" stroke="#FF5A5A" stroke-width="1.5"/>
    <circle cx="-80" cy="-55" r="3" fill="#FFD700"/>

    <path d="M 0,-15 C 50,-30 85,-25 95,-15" fill="none" stroke="#FF5A5A" stroke-width="1.5"/>
    <circle cx="95" cy="-15" r="3" fill="#FFD700"/>

    <path d="M 0,-15 C -50,-30 -85,-25 -95,-15" fill="none" stroke="#FF5A5A" stroke-width="1.5"/>
    <circle cx="-95" cy="-15" r="3" fill="#FFD700"/>

    <path d="M 0,-15 C 0,-70 10,-95 15,-102" fill="none" stroke="#FF7777" stroke-width="1.5"/>
    <circle cx="15" cy="-102" r="3.5" fill="#FFD700"/>

    <path d="M 0,-15 C 0,-70 -10,-95 -15,-102" fill="none" stroke="#FF7777" stroke-width="1.5"/>
    <circle cx="-15" cy="-102" r="3.5" fill="#FFD700"/>
  </g>
</svg>
